<?xml version="1.0" encoding="utf-8"?>
<!-- Generator: Adobe Illustrator 25.4.1, SVG Export Plug-In . SVG Version: 6.00 Build 0)  -->
<svg version="1.1" id="Camada_1" xmlns="http://www.w3.org/2000/svg" xmlns:xlink="http://www.w3.org/1999/xlink" x="0px" y="0px"
	 width="20px" height="20px" viewBox="0 0 20 20" enable-background="new 0 0 20 20" xml:space="preserve">
<g id="Elipse_1329">
	<ellipse fill="#F9F4E8" cx="9.95" cy="10.033" rx="9.13" ry="9.033"/>
</g>
<g id="Grupo_16343" transform="translate(1 1)">
	<g id="Caminho_50001">
		<path fill="#482119" d="M6.431,6.308c-0.482,0-0.874-0.392-0.874-0.874V4.734c0-0.482,0.392-0.874,0.874-0.875
			c0.482,0,0.875,0.392,0.875,0.874v0.701C7.305,5.916,6.913,6.308,6.431,6.308z M6.431,4.207c-0.291,0-0.527,0.237-0.527,0.527
			v0.701c0,0.29,0.237,0.526,0.527,0.526c0.29,0,0.527-0.236,0.527-0.527V4.734C6.958,4.443,6.721,4.207,6.431,4.207z"/>
	</g>
	<g id="Linha_3034">
		<path fill="#482119" d="M13.976,7.506h-1.424c-0.096,0-0.174-0.078-0.174-0.174s0.078-0.174,0.174-0.174h1.424
			c0.096,0,0.174,0.078,0.174,0.174S14.072,7.506,13.976,7.506z"/>
	</g>
	<g id="Linha_3035">
		<path fill="#482119" d="M11.534,7.506H3.803c-0.096,0-0.174-0.078-0.174-0.174s0.078-0.174,0.174-0.174h7.732
			c0.096,0,0.174,0.078,0.174,0.174S11.63,7.506,11.534,7.506z"/>
	</g>
	<g id="Elipse_1261">
		<ellipse fill="#482119" cx="8.883" cy="9.289" rx="0.613" ry="0.613"/>
	</g>
	<g id="Elipse_1262">
		<ellipse fill="#482119" cx="8.883" cy="11.741" rx="0.613" ry="0.613"/>
	</g>
	<g id="Elipse_1263">
		<ellipse fill="#482119" cx="6.08" cy="9.289" rx="0.613" ry="0.613"/>
	</g>
	<g id="Elipse_1264">
		<ellipse fill="#482119" cx="6.08" cy="11.741" rx="0.613" ry="0.613"/>
	</g>
	<g id="Elipse_1265">
		<ellipse fill="#482119" cx="11.686" cy="9.289" rx="0.613" ry="0.613"/>
	</g>
	<g id="Linha_3036">
		<path fill="#482119" d="M10.634,5.268H7.339c-0.096,0-0.174-0.078-0.174-0.174s0.078-0.174,0.174-0.174h3.295
			c0.096,0,0.174,0.078,0.174,0.174S10.73,5.268,10.634,5.268z"/>
	</g>
	<g id="Caminho_50002">
		<path fill="#482119" d="M13.262,14.017H4.504c-0.482,0-0.874-0.392-0.874-0.874V5.785c0-0.482,0.392-0.874,0.874-0.874H5.73
			c0.096,0,0.174,0.078,0.174,0.174S5.826,5.258,5.73,5.258H4.504c-0.291,0-0.527,0.236-0.527,0.527v7.358
			c0,0.291,0.236,0.527,0.527,0.527h8.759c0.291,0,0.527-0.236,0.527-0.527V5.785c0-0.291-0.236-0.527-0.527-0.527h-1.226
			c-0.096,0-0.174-0.078-0.174-0.174S11.94,4.91,12.036,4.91h1.226c0.482,0,0.874,0.392,0.874,0.874v7.358
			C14.137,13.625,13.744,14.017,13.262,14.017z"/>
	</g>
	<g id="Caminho_50003">
		<path fill="#482119" d="M11.336,6.308L11.336,6.308c-0.482,0-0.874-0.392-0.874-0.874V4.734c0-0.482,0.392-0.874,0.874-0.875
			c0.482,0,0.874,0.392,0.874,0.874v0.701C12.21,5.916,11.818,6.308,11.336,6.308z M11.336,4.207c-0.291,0-0.527,0.237-0.527,0.527
			v0.701c0,0.29,0.237,0.526,0.527,0.526c0.29,0,0.527-0.236,0.527-0.527V4.734C11.863,4.443,11.626,4.207,11.336,4.207z"/>
	</g>
</g>
</svg>
