<?xml version="1.0" encoding="utf-8"?>
<!-- Generator: Adobe Illustrator 25.4.1, SVG Export Plug-In . SVG Version: 6.00 Build 0)  -->
<svg version="1.1" id="Camada_1" xmlns="http://www.w3.org/2000/svg" xmlns:xlink="http://www.w3.org/1999/xlink" x="0px" y="0px"
	 width="20px" height="20px" viewBox="0 0 20 20" enable-background="new 0 0 20 20" xml:space="preserve">
<g id="Elipse_1329">
	<ellipse fill="#F9F4E8" cx="9.95" cy="10.033" rx="9.13" ry="9.033"/>
</g>
<g id="Grupo_16344" transform="translate(1.25)">
	<g id="Caminho_50380">
		<path fill="#482119" d="M9.067,16.028c-0.064,0-0.124-0.03-0.164-0.081l-2.323-3.02c-0.048-0.062-0.056-0.146-0.022-0.217
			c0.035-0.071,0.107-0.115,0.185-0.115h0.723V7.692H7.88v5.11c0,0.114-0.092,0.206-0.206,0.206h-0.51l1.904,2.475l1.904-2.475
			h-0.51c-0.114,0-0.206-0.092-0.206-0.206v-0.697h0.413v0.491h0.723c0.079,0,0.15,0.045,0.185,0.115
			c0.035,0.07,0.026,0.155-0.021,0.217l-2.323,3.02C9.192,15.998,9.131,16.028,9.067,16.028z"/>
	</g>
	<g id="Linha_3037">
		<rect x="7.417" y="6.669" fill="#482119" width="0.413" height="0.574"/>
	</g>
	<g id="Linha_3038">
		<rect x="7.417" y="5.903" fill="#482119" width="0.413" height="0.383"/>
	</g>
	<g id="Elipse_1270">
		<path fill="#482119" d="M11.356,11.852c-0.483,0-0.876-0.393-0.876-0.876c0-0.483,0.393-0.876,0.876-0.876
			c0.483,0,0.876,0.393,0.876,0.876C12.232,11.459,11.839,11.852,11.356,11.852z M11.356,10.512c-0.256,0-0.464,0.208-0.464,0.464
			c0,0.256,0.208,0.464,0.464,0.464c0.256,0,0.464-0.208,0.464-0.464C11.82,10.72,11.612,10.512,11.356,10.512z"/>
	</g>
	<g id="Caminho_50381">
		<path fill="#482119" d="M9.299,9.988c-0.498,0-0.903-0.405-0.903-0.903c0-0.498,0.405-0.903,0.903-0.903
			c0.498,0,0.903,0.405,0.903,0.903C10.202,9.583,9.797,9.988,9.299,9.988z M9.299,8.595c-0.27,0-0.49,0.22-0.49,0.49
			s0.22,0.49,0.49,0.49s0.49-0.22,0.49-0.49S9.57,8.595,9.299,8.595z"/>
	</g>
	<g id="Linha_3039">
		
			<rect x="8.35" y="9.813" transform="matrix(0.6076 -0.7942 0.7942 0.6076 -3.8769 12.1907)" fill="#482119" width="4.097" height="0.413"/>
	</g>
	<g id="Linha_3040">
		<rect x="10.288" y="5.137" fill="#482119" width="0.413" height="2.872"/>
	</g>
	<g id="Linha_3041">
		<rect x="4.737" y="8.583" fill="#482119" width="0.413" height="1.34"/>
	</g>
	<g id="Linha_3042">
		<rect x="4.737" y="7.052" fill="#482119" width="0.413" height="1.149"/>
	</g>
	<g id="Linha_3043">
		<rect x="4.737" y="10.497" fill="#482119" width="0.413" height="1.34"/>
	</g>
	<g id="Linha_3044">
		<rect x="4.737" y="12.412" fill="#482119" width="0.413" height="1.34"/>
	</g>
	<g id="Caminho_50382">
		<path fill="#482119" d="M6.512,13.937H3.028c-0.114,0-0.206-0.092-0.206-0.206v-2.555c0-0.114,0.092-0.206,0.206-0.206
			c0.27,0,0.49-0.272,0.49-0.607s-0.22-0.607-0.49-0.607c-0.114,0-0.206-0.092-0.206-0.206V6.995c0-0.114,0.092-0.206,0.206-0.206
			h3.948v0.413H3.235v2.169c0.399,0.106,0.697,0.51,0.697,0.992c0,0.482-0.298,0.887-0.697,0.992v2.169h3.278V13.937z"/>
	</g>
	<g id="Caminho_50383">
		<path fill="#482119" d="M13.712,13.937h-2.09v-0.413h1.884v-2.169c-0.399-0.106-0.697-0.511-0.697-0.992
			c0-0.482,0.298-0.887,0.697-0.992V7.202h-2.349V6.789h2.555c0.114,0,0.206,0.092,0.206,0.206V9.55
			c0,0.114-0.092,0.206-0.206,0.206c-0.27,0-0.49,0.272-0.49,0.607s0.22,0.607,0.49,0.607c0.114,0,0.206,0.092,0.206,0.206v2.555
			C13.919,13.845,13.826,13.937,13.712,13.937z"/>
	</g>
</g>
</svg>
