<svg width="17" height="17" viewBox="0 0 17 17" fill="none" xmlns="http://www.w3.org/2000/svg">
<path d="M14.8217 3.50695C14.7829 3.50695 14.7424 3.49682 14.7053 3.47657C14.2159 3.19645 13.7248 2.7729 13.2456 2.2194C13.1612 2.12153 13.1713 1.97472 13.2692 1.88866C13.3671 1.80428 13.5139 1.81441 13.6 1.91228C14.0455 2.42696 14.496 2.81508 14.9381 3.06989C15.0495 3.13401 15.0883 3.27745 15.0242 3.38882C14.9803 3.46476 14.9027 3.50695 14.8217 3.50695Z" fill="white"/>
<path d="M12.709 3.28932C12.6263 3.28932 12.5453 3.24544 12.5031 3.16613C12.2601 2.71389 11.9985 2.20089 11.7252 1.63897C11.6678 1.52253 11.7167 1.38247 11.8332 1.32678C11.9496 1.26941 12.0897 1.31835 12.1453 1.43478C12.4153 1.98996 12.6752 2.49789 12.9148 2.94338C12.9756 3.05644 12.9334 3.19819 12.8203 3.26063C12.7849 3.27919 12.7478 3.28932 12.709 3.28932Z" fill="white"/>
<path d="M13.1849 3.81558C13.1309 3.81558 13.0769 3.79702 13.033 3.75989L11.9024 2.79972C11.8045 2.71535 11.791 2.56854 11.8754 2.47066C11.9598 2.37279 12.1066 2.36098 12.2044 2.44366L13.3351 3.40384C13.4329 3.48821 13.4464 3.63502 13.3621 3.73289C13.3165 3.78689 13.2507 3.81558 13.1832 3.81558H13.1849Z" fill="white"/>
<path d="M15.0309 4.93111C14.9668 4.93111 14.9043 4.90579 14.8571 4.85348C14.8335 4.82648 14.8166 4.7978 14.8065 4.76573C14.7238 4.69317 14.442 4.48899 13.4852 3.93887C13.3738 3.87475 13.335 3.73131 13.3991 3.61994C13.4632 3.50856 13.6067 3.46975 13.718 3.53388C15.2418 4.40799 15.2536 4.51261 15.2688 4.65605C15.2773 4.7303 15.2435 4.81973 15.1878 4.87036C15.1423 4.91086 15.0866 4.93111 15.0309 4.93111Z" fill="white"/>
<path d="M13.7214 6.44984C13.6455 6.44984 13.5712 6.41271 13.5257 6.34521C13.4548 6.23721 13.4835 6.09209 13.5915 6.02122C14.3374 5.52847 14.4977 5.32092 14.5314 5.26185C14.5145 5.15892 14.5702 5.05261 14.6715 5.01042C14.7896 4.9598 14.928 5.01548 14.9786 5.13361C15.1102 5.44073 14.8149 5.77485 13.8514 6.41271C13.8109 6.43802 13.767 6.45152 13.7231 6.45152L13.7214 6.44984Z" fill="white"/>
<path d="M15.149 6.1712C15.0612 6.1712 14.9786 6.12227 14.9381 6.03958C14.8824 5.92315 14.9313 5.78309 15.0461 5.7274L15.8797 5.32409C15.9961 5.26841 16.1362 5.31565 16.1919 5.43209C16.2475 5.54853 16.2003 5.68859 16.0839 5.74427L15.2502 6.14758C15.2182 6.16277 15.1827 6.1712 15.149 6.1712Z" fill="white"/>
<path d="M10.9236 2.45382C10.8679 2.45382 10.8122 2.43358 10.7667 2.39308L9.18888 0.968847C9.0927 0.882786 9.08595 0.734288 9.17201 0.638102C9.25807 0.541916 9.40657 0.535166 9.50275 0.621227L11.0805 2.04546C11.1767 2.13152 11.1835 2.28001 11.0974 2.3762C11.0519 2.42683 10.9877 2.45382 10.9236 2.45382Z" fill="white"/>
<path d="M8.42108 1.06011C8.37045 1.06011 8.31814 1.04323 8.27427 1.00779C8.17302 0.926795 8.15783 0.779985 8.23883 0.678736L8.68601 0.121869C8.76701 0.020621 8.91382 0.00543374 9.01507 0.084745C9.11632 0.165744 9.1315 0.312554 9.05219 0.413803L8.60501 0.972357C8.55945 1.02973 8.49026 1.06011 8.42276 1.06011H8.42108Z" fill="white"/>
<path d="M5.92191 1.7417C5.81391 1.7417 5.71772 1.66745 5.6941 1.55608C5.6671 1.42952 5.7481 1.30464 5.87297 1.27764L7.74776 0.874336C7.87432 0.847336 7.99919 0.928335 8.02619 1.05321C8.05319 1.17977 7.97219 1.30464 7.84732 1.33164L5.97253 1.73495C5.95566 1.73832 5.93878 1.74001 5.9236 1.74001L5.92191 1.7417Z" fill="white"/>
<path d="M6.30838 2.08293C6.20207 2.08293 6.10589 2.00868 6.08057 1.90069C6.05189 1.77413 6.1312 1.64925 6.25776 1.62056L7.6263 1.31007C7.75117 1.28138 7.87773 1.36069 7.90642 1.48557C7.93511 1.61213 7.8558 1.737 7.73092 1.76569L6.36069 2.07618C6.34382 2.07956 6.32526 2.08125 6.30838 2.08125V2.08293Z" fill="white"/>
<path d="M9.55337 2.79498C9.52806 2.79498 9.50275 2.79161 9.47912 2.78317L7.63302 2.16387C7.50984 2.12337 7.44403 1.99006 7.48621 1.86856C7.52671 1.74537 7.66002 1.67956 7.78152 1.72175L9.62762 2.34105C9.7508 2.38155 9.81662 2.51486 9.77443 2.63805C9.74237 2.73592 9.64956 2.79667 9.55337 2.79667V2.79498Z" fill="white"/>
<path d="M10.1525 3.56445C9.9736 3.56445 9.78798 3.5307 9.59561 3.4632C9.47411 3.42101 9.40999 3.2877 9.45218 3.16452C9.49436 3.04302 9.62767 2.9789 9.75086 3.02108C10.1744 3.16958 10.5254 3.09702 10.8528 2.79159C10.9473 2.70384 11.0958 2.7089 11.1835 2.8034C11.2713 2.8979 11.2662 3.0464 11.1717 3.13414C10.8629 3.41933 10.522 3.56276 10.1525 3.56276V3.56445Z" fill="white"/>
<path d="M12.5773 5.21625C12.4406 5.21625 12.3495 5.21625 11.3623 3.94389C11.283 3.84096 11.3016 3.69415 11.4045 3.61652C11.5057 3.53721 11.6542 3.55577 11.7319 3.65871C12.3495 4.4552 12.5689 4.68469 12.6431 4.75051C12.6752 4.75726 12.7072 4.77244 12.7342 4.79438C12.8355 4.87369 12.8524 5.02219 12.773 5.12344C12.7292 5.17912 12.6499 5.21794 12.5773 5.21794V5.21625Z" fill="white"/>
<path d="M12.7393 7.71881C12.6651 7.71881 12.5942 7.68506 12.5486 7.61925L11.4771 6.10221C11.4028 5.99759 11.4282 5.85078 11.5328 5.77653C11.6374 5.70228 11.7842 5.72759 11.8585 5.83222L12.93 7.34926C13.0043 7.45388 12.9789 7.60069 12.8743 7.67494C12.8338 7.70363 12.7866 7.71713 12.7393 7.71713V7.71881Z" fill="white"/>
<path d="M10.7144 7.78113C10.7042 7.78113 10.6958 7.78113 10.6857 7.77944L9.16696 7.59382C9.03871 7.57863 8.94759 7.46051 8.96277 7.33395C8.97796 7.2057 9.09777 7.11626 9.22264 7.12976L10.7414 7.31539C10.8696 7.33057 10.9607 7.44701 10.9456 7.57526C10.9304 7.69338 10.8308 7.78113 10.7144 7.78113Z" fill="white"/>
<path d="M8.59994 6.85149C8.50713 6.85149 8.41769 6.7958 8.38226 6.70299C8.33501 6.58318 8.39407 6.44649 8.51388 6.39924L10.0917 5.77994C10.2115 5.73269 10.3482 5.79175 10.3954 5.91325C10.4427 6.03306 10.3836 6.16975 10.2621 6.217L8.68431 6.8363C8.65563 6.84811 8.62694 6.85317 8.59825 6.85317L8.59994 6.85149Z" fill="white"/>
<path d="M7.70731 5.48957C7.61956 5.48957 7.53687 5.44064 7.49637 5.35626C7.44069 5.23983 7.48962 5.09977 7.60606 5.04408C8.02286 4.84496 8.24224 4.57159 8.27767 4.21047C8.28948 4.08222 8.40592 3.98772 8.53248 3.99953C8.66073 4.01134 8.75523 4.12609 8.74342 4.25434C8.69111 4.7859 8.37723 5.19426 7.80687 5.46595C7.77481 5.48113 7.73937 5.48957 7.70562 5.48957H7.70731Z" fill="white"/>
<path d="M8.57129 4.03341C8.51898 4.03341 8.46667 4.01653 8.42279 3.98109L7.29218 3.05129C7.19262 2.96861 7.17744 2.8218 7.26012 2.72224C7.34281 2.62268 7.48962 2.60749 7.58918 2.69018L8.71979 3.61997C8.81935 3.70266 8.83454 3.84947 8.75185 3.94903C8.70629 4.00472 8.63879 4.03509 8.57129 4.03509V4.03341Z" fill="white"/>
<path d="M6.87365 3.44424C6.80953 3.44424 6.7454 3.41724 6.69816 3.36661C6.60872 3.26537 6.22229 2.884 5.54899 2.23432C5.45617 2.14488 5.45449 1.99639 5.54392 1.90357C5.63336 1.81076 5.78186 1.80739 5.87467 1.89851C6.79434 2.78781 6.98503 2.98525 7.04746 3.05612C7.13353 3.15231 7.12509 3.3008 7.0289 3.38686C6.98503 3.42568 6.92934 3.44593 6.87365 3.44593V3.44424Z" fill="white"/>
<path d="M4.76094 2.23608C4.6867 2.23608 4.61245 2.20064 4.56689 2.13314C4.49432 2.02683 4.52132 1.88002 4.62763 1.80746C6.0198 0.859096 6.09405 0.847284 6.25267 1.05147C6.33198 1.15272 6.31511 1.29953 6.21386 1.38053C6.17505 1.4109 6.12949 1.42777 6.08392 1.42946C6.00799 1.4649 5.74812 1.61002 4.89088 2.19389C4.85038 2.22089 4.80482 2.23439 4.75926 2.23439L4.76094 2.23608Z" fill="white"/>
<path d="M2.46935 2.76279C2.41198 2.76279 2.35292 2.74085 2.30904 2.69867C2.21455 2.60923 2.21117 2.46242 2.30061 2.36792C2.50985 2.14855 3.14435 1.47693 3.74171 1.79587C3.85646 1.85662 3.89864 1.99836 3.8379 2.11311C3.77715 2.22617 3.6354 2.27005 3.52065 2.2093C3.27428 2.07768 2.86254 2.45398 2.63979 2.69023C2.59423 2.73917 2.53179 2.76279 2.46935 2.76279Z" fill="white"/>
<path d="M1.06879 5.48959C1.02154 5.48959 0.972604 5.4744 0.932104 5.44403C0.827481 5.36809 0.803857 5.22128 0.879793 5.11666L1.71341 3.97086C1.78934 3.86624 1.93615 3.84261 2.04078 3.91855C2.1454 3.99449 2.16902 4.1413 2.09309 4.24592L1.25947 5.39172C1.21391 5.45415 1.14304 5.4879 1.07048 5.4879L1.06879 5.48959Z" fill="white"/>
<path d="M3.15277 3.53742C3.07684 3.53742 3.00428 3.50198 2.95872 3.43448C2.88615 3.32817 2.91484 3.18136 3.02284 3.11049L4.03532 2.42875C4.14332 2.35619 4.28844 2.38487 4.35932 2.49287C4.43188 2.59918 4.40319 2.74599 4.2952 2.81687L3.28271 3.49861C3.24221 3.52561 3.19665 3.53911 3.15277 3.53911V3.53742Z" fill="white"/>
<path d="M4.85213 5.79865C4.81332 5.79865 4.7745 5.78852 4.73738 5.76996C4.5467 5.66534 4.30539 5.34472 3.82108 3.71124C3.78396 3.58806 3.85483 3.45643 3.9797 3.421C4.10289 3.38387 4.23282 3.45475 4.26995 3.57962C4.72557 5.12028 4.93144 5.33628 4.96688 5.36497C5.07994 5.4274 5.11875 5.56747 5.05631 5.68053C5.01413 5.75815 4.93313 5.80034 4.85044 5.80034L4.85213 5.79865Z" fill="white"/>
<path d="M6.45685 4.62232C6.41972 4.62232 6.3826 4.61389 6.34716 4.59532C5.27899 4.02496 4.8335 3.61659 4.85375 3.23016C4.8605 3.1036 4.96681 3.01416 5.09505 3.01416C5.22162 3.01754 5.32287 3.12891 5.32118 3.25547C5.32118 3.26559 5.33299 3.52378 6.56822 4.18189C6.68297 4.24264 6.72516 4.38439 6.66441 4.49914C6.62222 4.57845 6.54122 4.62232 6.45853 4.62232H6.45685Z" fill="white"/>
<path d="M5.41568 5.64492C5.30768 5.64492 5.20981 5.56898 5.18787 5.4593C5.16087 5.33274 5.24187 5.20955 5.36843 5.18255L6.67791 4.90412C6.80447 4.87712 6.92934 4.95812 6.95634 5.08468C6.98334 5.21124 6.90234 5.33442 6.77578 5.36311L5.4663 5.64154C5.44943 5.64492 5.43424 5.64661 5.41737 5.64661L5.41568 5.64492Z" fill="white"/>
<path d="M3.15277 7.00671C3.04309 7.00671 2.94353 6.9274 2.92328 6.81603C2.89965 6.68947 2.98403 6.56628 3.11059 6.54266C4.59388 6.26591 5.02925 6.00098 5.1575 5.86767C5.24693 5.77486 5.39543 5.77148 5.48824 5.86092C5.58105 5.95036 5.58443 6.09885 5.49499 6.19166C5.19124 6.50891 4.46057 6.76709 3.19496 7.00334C3.17977 7.00671 3.16628 7.00671 3.15109 7.00671H3.15277Z" fill="white"/>
<path d="M4.99215 7.67176C4.89934 7.67176 4.80315 7.66669 4.70359 7.65488C4.57535 7.64138 4.48253 7.52495 4.49772 7.3967C4.51122 7.26845 4.62766 7.17395 4.75591 7.19083C5.43258 7.26507 5.86626 7.05076 6.12782 6.51584C6.18351 6.3994 6.32357 6.35046 6.44 6.40784C6.55644 6.46352 6.60369 6.60358 6.548 6.72002C6.24257 7.34607 5.70764 7.67176 4.99215 7.67176Z" fill="white"/>
<path d="M7.6195 7.47078C7.55032 7.47078 7.48113 7.4404 7.43388 7.37965L6.6897 6.41948C6.61039 6.31654 6.62895 6.16973 6.73189 6.09211C6.83314 6.0128 6.97995 6.03136 7.05926 6.1343L7.80344 7.09447C7.88275 7.19572 7.86419 7.34421 7.76294 7.42353C7.72075 7.45728 7.67013 7.47246 7.6195 7.47246V7.47078Z" fill="white"/>
<path d="M2.55709 7.37815C2.52671 7.37815 2.49465 7.3714 2.46428 7.35958L1.24423 6.83309C1.12611 6.78247 1.07042 6.64409 1.12273 6.52597C1.17336 6.40785 1.31173 6.35216 1.42985 6.40447L2.6499 6.93096C2.76802 6.98159 2.82371 7.11996 2.77308 7.23808C2.73427 7.32583 2.64821 7.37983 2.55877 7.37983L2.55709 7.37815Z" fill="white"/>
<path d="M2.11166 6.38726C2.00534 6.38726 1.91084 6.3147 1.88385 6.20839C1.85347 6.08352 1.9311 5.95695 2.05597 5.92658C2.76977 5.75446 3.23214 5.5064 3.39245 5.20603C3.4532 5.09297 3.59495 5.04909 3.70969 5.11153C3.82275 5.17228 3.86663 5.31403 3.80419 5.42878C3.57132 5.86077 3.03639 6.17295 2.16397 6.3822C2.1454 6.38726 2.12684 6.38895 2.10997 6.38895L2.11166 6.38726Z" fill="white"/>
<path d="M2.48451 5.16058C2.32251 5.16058 2.15208 5.11839 1.97658 5.03065C1.86015 4.97327 1.8129 4.83321 1.87027 4.71678C1.92764 4.60203 2.0677 4.55309 2.18414 4.61046C2.46932 4.75052 2.66845 4.7134 2.85238 4.48728C2.93338 4.38603 3.08019 4.37084 3.18144 4.45184C3.281 4.53284 3.29787 4.68134 3.21519 4.7809C3.01269 5.03065 2.76126 5.15889 2.48451 5.15889V5.16058Z" fill="white"/>
<path d="M1.51763 8.35867C1.40963 8.35867 1.31176 8.33167 1.22401 8.27935C1.05358 8.17811 0.950642 7.99417 0.91183 7.7208C0.552398 7.75792 0.192966 7.7343 0.0596553 7.47274C-0.0770302 7.20612 0.0883423 6.87369 0.608084 6.35901C0.699208 6.26788 0.847707 6.26957 0.938831 6.3607C1.02995 6.45182 1.02827 6.60032 0.937141 6.69144C0.604709 7.0205 0.516962 7.18587 0.493337 7.24999C0.554087 7.26687 0.716082 7.28543 1.09239 7.223L1.36407 7.17743V7.45249C1.36407 7.7208 1.41807 7.84736 1.46532 7.87436C1.5092 7.89967 1.63576 7.88955 1.85344 7.77142C1.9665 7.71068 2.10994 7.75286 2.17069 7.86592C2.23144 7.97898 2.18925 8.12073 2.07619 8.18317C1.86525 8.29792 1.68132 8.3536 1.52101 8.3536L1.51763 8.35867Z" fill="white"/>
<path d="M8.36878 16.9662C7.9081 16.9662 7.42548 16.9493 6.91755 16.9172C5.6047 16.8987 4.46228 16.578 3.53417 15.9621C2.88786 15.9486 1.94457 14.683 0.00734479 7.07588C-0.0247172 6.95101 0.0512191 6.82276 0.176092 6.7907C0.300965 6.75864 0.429214 6.83457 0.461276 6.95945C2.56724 15.2331 3.41098 15.52 3.5561 15.4913C3.61685 15.4812 3.67929 15.493 3.72991 15.5284C4.59221 16.1207 5.67051 16.4296 6.93443 16.4464C11.3219 16.7333 13.8143 15.7714 14.3543 13.5895C14.3559 13.5794 14.3593 13.5693 14.3627 13.5608C15.9202 9.59022 16.4231 7.64625 16.521 6.69957C16.3134 6.92063 15.9658 7.00163 15.4596 6.94595C15.4241 7.248 15.3094 7.46906 15.1119 7.60406C14.8301 7.79812 14.4201 7.79474 13.8598 7.59056C13.6506 7.96855 13.3958 8.19636 13.1021 8.27061C12.8372 8.33811 12.552 8.27736 12.2533 8.09174C11.8956 8.41911 11.5665 8.55748 11.2561 8.5153C11.0333 8.48492 10.8359 8.36174 10.6671 8.14911C10.1626 8.59123 9.71876 8.79373 9.31883 8.76504C9.10114 8.74986 8.9054 8.66717 8.73159 8.51698C8.5679 8.68236 8.37722 8.78361 8.15953 8.81904C7.76973 8.88317 7.32255 8.73129 6.79943 8.35836C6.62731 8.63004 6.41806 8.78698 6.17507 8.8241C5.86457 8.87135 5.53551 8.72623 5.17608 8.37692C4.93983 8.59461 4.6884 8.70598 4.42515 8.70598H4.42347C4.08935 8.70598 3.76198 8.53386 3.42786 8.18286C3.12242 8.42586 2.84736 8.51361 2.59087 8.45286C2.30062 8.38367 2.0745 8.12549 1.91925 7.68337C1.87707 7.56187 1.94119 7.42856 2.06269 7.38469C2.18419 7.3425 2.3175 7.40494 2.36137 7.52812C2.45756 7.80149 2.57737 7.96855 2.70056 7.99724C2.83555 8.0293 3.0448 7.91793 3.2878 7.68506C3.33505 7.6395 3.39748 7.61587 3.46329 7.62093C3.5291 7.62431 3.58817 7.65468 3.63035 7.70531C3.92229 8.05968 4.18891 8.23855 4.42515 8.24024C4.61077 8.24024 4.80315 8.12212 4.99552 7.89093C5.03939 7.83862 5.10352 7.80824 5.17102 7.80656C5.24189 7.80656 5.30433 7.83356 5.34989 7.88418C5.65364 8.22336 5.92194 8.39211 6.10419 8.36511C6.28475 8.33642 6.42312 8.10355 6.50918 7.91456C6.53956 7.84874 6.59693 7.79981 6.66781 7.78293C6.73868 7.76606 6.81293 7.78293 6.86862 7.82681C7.36811 8.22336 7.78829 8.4073 8.08528 8.36005C8.25572 8.33305 8.39916 8.22674 8.52065 8.03774C8.56115 7.97362 8.63203 7.93481 8.70796 7.93143C8.78559 7.92974 8.85646 7.9618 8.90202 8.02255C9.03702 8.19805 9.18383 8.28918 9.35258 8.30099C9.65801 8.32292 10.0714 8.09005 10.5473 7.62431C10.5996 7.57369 10.6722 7.55006 10.7447 7.56019C10.8173 7.57031 10.8797 7.61418 10.9152 7.67831C11.0401 7.90781 11.1767 8.03268 11.3202 8.05293C11.5092 8.07824 11.7657 7.93143 12.061 7.62768C12.1437 7.54331 12.2753 7.53319 12.3698 7.60406C12.6111 7.788 12.8187 7.85887 12.9874 7.81668C13.1848 7.76775 13.3688 7.5585 13.5341 7.19738C13.5865 7.08263 13.7215 7.03032 13.8379 7.07926C14.4926 7.35431 14.7508 7.28513 14.847 7.21763C14.9871 7.12144 15.009 6.87338 15.0022 6.6827C15.0006 6.61183 15.0292 6.54433 15.0832 6.49708C15.1372 6.45152 15.2081 6.43127 15.2773 6.44308C15.7447 6.52745 16.0755 6.50045 16.1885 6.36714C16.2797 6.25914 16.2645 6.02121 16.148 5.70059C16.121 5.62803 16.1328 5.54534 16.1784 5.48291C16.224 5.42047 16.2999 5.38672 16.3775 5.38672C16.575 5.39516 16.7353 5.48628 16.8433 5.65165C17.1436 6.11233 17.2601 7.44881 14.8048 13.7127C14.2614 15.871 12.0981 16.9594 8.36709 16.9594L8.36878 16.9662Z" fill="white"/>
<path d="M3.40253 15.527C3.35697 15.527 3.30972 15.5169 3.26584 15.4949C3.05153 15.3903 2.65329 15.1979 0.191266 7.64987C0.150766 7.52669 0.218265 7.39506 0.341451 7.35456C0.464636 7.31407 0.596259 7.38156 0.636759 7.50475C0.675571 7.62287 0.712695 7.73931 0.749819 7.85237C0.68232 7.4575 0.692446 7.26007 0.724508 7.14363C0.758258 7.01876 0.886505 6.9462 1.01138 6.97995C1.13625 7.01369 1.20881 7.14363 1.17506 7.26682C1.09744 7.552 1.31344 8.96273 3.63878 15.2081C3.66071 15.2671 3.65734 15.3313 3.63203 15.3869C3.60671 15.4443 3.55778 15.4865 3.5004 15.5084C3.46834 15.5203 3.43459 15.5253 3.40253 15.5253V15.527Z" fill="white"/>
<path d="M3.83794 15.7716C3.74513 15.7716 3.65569 15.7142 3.62026 15.6231C2.75121 13.3855 2.03572 10.8087 1.49573 7.96197C1.4721 7.83541 1.55479 7.71222 1.68135 7.6886C1.8096 7.66497 1.93109 7.74766 1.95472 7.87422C2.48965 10.6923 3.1967 13.2421 4.05563 15.4527C4.10287 15.5725 4.04212 15.7092 3.92231 15.7547C3.89363 15.7649 3.86494 15.7699 3.83794 15.7699V15.7716Z" fill="white"/>
<path d="M4.22434 16.1123C4.11127 16.1123 4.0134 16.0314 3.99315 15.9166L2.74273 8.45122C2.7208 8.32466 2.80686 8.20316 2.93511 8.18122C3.06167 8.16097 3.18316 8.24534 3.2051 8.37359L4.45552 15.839C4.47746 15.9655 4.39139 16.087 4.26315 16.109C4.24965 16.1107 4.23784 16.1123 4.22434 16.1123Z" fill="white"/>
<path d="M5.05796 16.205C4.94153 16.205 4.84028 16.1173 4.82678 15.9992C4.58041 13.9135 4.45047 11.4767 4.43866 8.75653C4.43866 8.6266 4.5416 8.52197 4.67153 8.52197C4.79978 8.52197 4.9044 8.6266 4.90609 8.75484C4.9179 11.4582 5.04784 13.878 5.29083 15.9452C5.30602 16.0734 5.2149 16.1899 5.08665 16.205C5.07821 16.205 5.06809 16.205 5.05965 16.205H5.05796Z" fill="white"/>
<path d="M6.30835 16.4214C6.17841 16.4214 6.07379 16.3167 6.07379 16.1868V8.6286C6.07379 8.49867 6.17841 8.39404 6.30835 8.39404C6.43829 8.39404 6.54291 8.49867 6.54291 8.6286V16.1868C6.54291 16.3167 6.43829 16.4214 6.30835 16.4214Z" fill="white"/>
<path d="M8.36875 16.3639C8.33669 16.3639 8.30463 16.3588 8.27763 16.347C8.06163 16.2542 7.90638 16.1867 7.91988 8.84615C7.91988 8.7179 8.02451 8.61328 8.15444 8.61328C8.28438 8.61328 8.38732 8.7179 8.38732 8.84784C8.37719 14.2326 8.47338 15.6315 8.54256 15.9487C8.54931 15.9538 8.55437 15.9589 8.55944 15.9656C8.64887 16.0601 8.64381 16.2069 8.551 16.2964C8.50544 16.3402 8.43456 16.3655 8.36706 16.3655L8.36875 16.3639Z" fill="white"/>
<path d="M9.64288 16.0804C9.5197 16.0804 9.41676 15.9843 9.41001 15.8594L9.05226 8.89011C9.04551 8.76187 9.14508 8.65049 9.27332 8.64374C9.40326 8.63868 9.51294 8.73655 9.51969 8.8648L9.87744 15.8341C9.88419 15.9623 9.78463 16.0737 9.65638 16.0804C9.653 16.0804 9.64794 16.0804 9.64457 16.0804H9.64288Z" fill="white"/>
<path d="M10.6249 16.1122C10.495 16.1122 10.392 16.0059 10.392 15.8776L10.4224 7.9482C10.4224 7.81996 10.527 7.71533 10.657 7.71533C10.7869 7.71533 10.8898 7.82164 10.8898 7.94989L10.8595 15.8793C10.8595 16.0076 10.7548 16.1122 10.6249 16.1122Z" fill="white"/>
<path d="M11.7859 15.8641C11.7859 15.8641 11.7808 15.8641 11.7775 15.8641C11.6492 15.859 11.548 15.751 11.5514 15.6228L11.8197 8.09495C11.8247 7.9667 11.931 7.86377 12.061 7.86883C12.1892 7.87389 12.2905 7.98189 12.2871 8.11014L12.0188 15.638C12.0137 15.7645 11.9108 15.8641 11.7859 15.8641Z" fill="white"/>
<path d="M12.8288 15.4612C12.8203 15.4612 12.8119 15.4612 12.8035 15.4612C12.6752 15.4477 12.5824 15.333 12.5959 15.2031C12.5959 15.2031 12.8625 12.714 13.3991 7.73767C13.4126 7.60942 13.5291 7.51661 13.6573 7.53011C13.7856 7.54361 13.8784 7.66005 13.8649 7.7883C13.3283 12.7647 13.0617 15.2537 13.0617 15.2537C13.0482 15.3735 12.9469 15.4629 12.8288 15.4629V15.4612Z" fill="white"/>
<path d="M13.6623 15.213C13.6488 15.213 13.637 15.213 13.6235 15.2096C13.4953 15.1877 13.4109 15.0678 13.4312 14.9396L14.6512 7.62945C14.6731 7.5012 14.793 7.41683 14.9212 7.43708C15.0494 7.45902 15.1338 7.57883 15.1136 7.70708L13.8935 15.0172C13.875 15.132 13.7754 15.213 13.6623 15.213Z" fill="white"/>
<path d="M15.4532 7.00414L14.115 13.8506L14.5737 13.9403L15.912 7.09381L15.4532 7.00414Z" fill="white"/>
<path d="M15.1204 12.054C15.0951 12.054 15.0681 12.0489 15.0428 12.0405C14.9213 11.9983 14.8571 11.865 14.8993 11.7418C16.0029 8.58451 16.0434 7.38977 15.8814 6.94259C15.8376 6.82109 15.9 6.68778 16.0215 6.64391C16.143 6.60004 16.2763 6.66247 16.3202 6.78397C16.5952 7.5484 16.2746 9.219 15.3381 11.8953C15.3043 11.9915 15.2132 12.0523 15.117 12.0523L15.1204 12.054Z" fill="white"/>
<path d="M8.47846 16.4263C6.94961 16.4263 5.20308 16.185 3.24561 15.7024L3.35698 15.2484C8.67927 16.5613 12.3563 16.0567 14.2851 13.7466L14.6445 14.047C13.3198 15.6332 11.256 16.428 8.47846 16.428V16.4263Z" fill="white"/>
<path d="M10.7734 5.39677C10.7279 5.39677 10.684 5.38327 10.6435 5.35795L9.39308 4.52097C9.28508 4.44841 9.25639 4.30328 9.32895 4.19697C9.40152 4.08897 9.54495 4.06029 9.65295 4.13285L10.9034 4.96984C11.0114 5.0424 11.0401 5.18752 10.9675 5.29383C10.9219 5.36133 10.8477 5.39677 10.7734 5.39677Z" fill="white"/>
</svg>
