<svg width="20" height="20" viewBox="0 0 20 20" fill="none" xmlns="http://www.w3.org/2000/svg">
<path d="M17.123 4.13379C17.0782 4.13379 17.0314 4.12209 16.9885 4.0987C16.4231 3.77508 15.8558 3.28576 15.3022 2.64633C15.2047 2.53326 15.2164 2.36365 15.3295 2.26423C15.4426 2.16675 15.6122 2.17845 15.7116 2.29152C16.2263 2.88611 16.7468 3.3345 17.2575 3.62887C17.3862 3.70295 17.431 3.86866 17.357 3.99732C17.3063 4.08505 17.2166 4.13379 17.123 4.13379Z" fill="#603312"/>
<path d="M14.6823 3.88195C14.5868 3.88195 14.4932 3.83127 14.4444 3.73964C14.1637 3.21718 13.8615 2.62453 13.5457 1.97535C13.4794 1.84084 13.536 1.67903 13.6705 1.6147C13.805 1.54841 13.9668 1.60495 14.0311 1.73946C14.3431 2.38085 14.6433 2.96764 14.9201 3.48231C14.9903 3.61293 14.9416 3.77668 14.8109 3.84881C14.77 3.87026 14.7271 3.88195 14.6823 3.88195Z" fill="#603312"/>
<path d="M15.232 4.49026C15.1697 4.49026 15.1073 4.46882 15.0566 4.42593L13.7504 3.31667C13.6374 3.21919 13.6218 3.04959 13.7192 2.93652C13.8167 2.82345 13.9863 2.8098 14.0994 2.90533L15.4055 4.01459C15.5186 4.11206 15.5342 4.28167 15.4367 4.39474C15.3841 4.45712 15.3081 4.49026 15.2301 4.49026H15.232Z" fill="#603312"/>
<path d="M17.3648 5.77884C17.2907 5.77884 17.2185 5.7496 17.164 5.68916C17.1367 5.65797 17.1172 5.62483 17.1055 5.58779C17.01 5.50396 16.6844 5.26807 15.579 4.63254C15.4504 4.55846 15.4055 4.39275 15.4796 4.26408C15.5537 4.13542 15.7194 4.09058 15.8481 4.16466C17.6084 5.1745 17.6221 5.29536 17.6396 5.46107C17.6494 5.54685 17.6104 5.65017 17.5461 5.70866C17.4934 5.75544 17.4291 5.77884 17.3648 5.77884Z" fill="#603312"/>
<path d="M15.852 7.53318C15.7642 7.53318 15.6785 7.49029 15.6258 7.41231C15.5439 7.28754 15.5771 7.11988 15.7019 7.03801C16.5635 6.46875 16.7487 6.22897 16.7877 6.16073C16.7682 6.04182 16.8326 5.919 16.9495 5.87026C17.086 5.81178 17.2459 5.87611 17.3043 6.01257C17.4564 6.36738 17.1152 6.75338 16.0021 7.49029C15.9553 7.51953 15.9046 7.53513 15.8539 7.53513L15.852 7.53318Z" fill="#603312"/>
<path d="M17.5012 7.21163C17.3999 7.21163 17.3043 7.15509 17.2576 7.05957C17.1932 6.92505 17.2498 6.76325 17.3823 6.69891L18.3454 6.23299C18.4799 6.16865 18.6417 6.22324 18.706 6.35775C18.7704 6.49227 18.7158 6.65408 18.5813 6.71841L17.6182 7.18434C17.5812 7.20188 17.5402 7.21163 17.5012 7.21163Z" fill="#603312"/>
<path d="M12.6197 2.91716C12.5554 2.91716 12.4911 2.89376 12.4384 2.84697L10.6156 1.2016C10.5045 1.10218 10.4967 0.930623 10.5961 0.819502C10.6956 0.708381 10.8671 0.700583 10.9783 0.800007L12.801 2.44538C12.9121 2.5448 12.9199 2.71636 12.8205 2.82748C12.7679 2.88596 12.6938 2.91716 12.6197 2.91716Z" fill="#603312"/>
<path d="M9.72862 1.3068C9.67013 1.3068 9.6097 1.28731 9.55901 1.24637C9.44204 1.1528 9.4245 0.983189 9.51807 0.86622L10.0347 0.222888C10.1283 0.105918 10.2979 0.0883727 10.4148 0.179999C10.5318 0.273574 10.5494 0.44318 10.4577 0.56015L9.94111 1.20543C9.88848 1.27171 9.80855 1.3068 9.73057 1.3068H9.72862Z" fill="#603312"/>
<path d="M6.84145 2.09447C6.71668 2.09447 6.60556 2.00869 6.57827 1.88002C6.54708 1.73381 6.64065 1.58955 6.78491 1.55836L8.9508 1.09243C9.09701 1.06124 9.24127 1.15481 9.27247 1.29907C9.30366 1.44529 9.21008 1.58955 9.06582 1.62074L6.89994 2.08667C6.88044 2.09057 6.86094 2.09252 6.8434 2.09252L6.84145 2.09447Z" fill="#603312"/>
<path d="M7.2879 2.48803C7.16508 2.48803 7.05396 2.40225 7.02472 2.27748C6.99158 2.13127 7.0832 1.98701 7.22942 1.95387L8.81045 1.59516C8.95472 1.56202 9.10093 1.65365 9.13407 1.79791C9.16721 1.94412 9.07559 2.08838 8.93132 2.12152L7.34833 2.48023C7.32884 2.48413 7.3074 2.48608 7.2879 2.48608V2.48803Z" fill="#603312"/>
<path d="M11.0367 3.31078C11.0075 3.31078 10.9782 3.30688 10.9509 3.29713L8.8182 2.58167C8.67589 2.53488 8.59986 2.38087 8.6486 2.24051C8.69539 2.09819 8.8494 2.02216 8.98976 2.0709L11.1225 2.78636C11.2648 2.83315 11.3408 2.98716 11.2921 3.12947C11.2551 3.24254 11.1478 3.31273 11.0367 3.31273V3.31078Z" fill="#603312"/>
<path d="M11.7288 4.20003C11.5222 4.20003 11.3077 4.16104 11.0855 4.08306C10.9451 4.03432 10.871 3.88031 10.9198 3.738C10.9685 3.59764 11.1225 3.52356 11.2648 3.57229C11.7541 3.74385 12.1596 3.66002 12.5378 3.30716C12.647 3.20579 12.8186 3.21164 12.9199 3.32081C13.0213 3.42998 13.0155 3.60154 12.9063 3.70291C12.5495 4.03237 12.1557 4.19808 11.7288 4.19808V4.20003Z" fill="#603312"/>
<path d="M14.5302 6.1085C14.3723 6.1085 14.267 6.1085 13.1266 4.63858C13.035 4.51967 13.0564 4.35006 13.1753 4.26038C13.2923 4.16876 13.4639 4.1902 13.5535 4.30912C14.267 5.22928 14.5205 5.49441 14.6063 5.57044C14.6433 5.57824 14.6803 5.59579 14.7115 5.62113C14.8285 5.71275 14.848 5.88431 14.7564 6.00128C14.7057 6.06561 14.6141 6.11045 14.5302 6.11045V6.1085Z" fill="#603312"/>
<path d="M14.7174 8.99967C14.6316 8.99967 14.5497 8.96068 14.4971 8.88465L13.2592 7.13206C13.1734 7.01119 13.2026 6.84159 13.3235 6.75581C13.4444 6.67003 13.614 6.69927 13.6997 6.82014L14.9377 8.57273C15.0235 8.6936 14.9942 8.86321 14.8733 8.94899C14.8266 8.98213 14.772 8.99772 14.7174 8.99772V8.99967Z" fill="#603312"/>
<path d="M12.378 9.07144C12.3663 9.07144 12.3565 9.07144 12.3448 9.06949L10.5903 8.85505C10.4421 8.8375 10.3368 8.70104 10.3544 8.55483C10.3719 8.40667 10.5103 8.30334 10.6546 8.31894L12.4092 8.53338C12.5573 8.55093 12.6626 8.68544 12.645 8.8336C12.6275 8.97007 12.5125 9.07144 12.378 9.07144Z" fill="#603312"/>
<path d="M9.93528 7.99744C9.82806 7.99744 9.72474 7.93311 9.6838 7.82589C9.62921 7.68747 9.69744 7.52957 9.83586 7.47498L11.6586 6.75952C11.797 6.70493 11.955 6.77316 12.0095 6.91353C12.0641 7.05194 11.9959 7.20985 11.8555 7.26443L10.0328 7.9799C9.99961 7.99354 9.96647 7.99939 9.93333 7.99939L9.93528 7.99744Z" fill="#603312"/>
<path d="M8.90397 6.42421C8.80259 6.42421 8.70707 6.36768 8.66028 6.2702C8.59595 6.13569 8.65248 5.97388 8.787 5.90955C9.26852 5.67951 9.52195 5.36369 9.56289 4.9465C9.57654 4.79834 9.71106 4.68917 9.85727 4.70281C10.0054 4.71646 10.1146 4.84902 10.101 4.99719C10.0405 5.61128 9.67792 6.08305 9.01899 6.39692C8.98195 6.41447 8.94101 6.42421 8.90202 6.42421H8.90397Z" fill="#603312"/>
<path d="M9.90214 4.74197C9.8417 4.74197 9.78127 4.72248 9.73058 4.68154L8.42442 3.60737C8.3094 3.51184 8.29185 3.34224 8.38738 3.22722C8.4829 3.1122 8.65251 3.09465 8.76753 3.19017L10.0737 4.26434C10.1887 4.35987 10.2063 4.52948 10.1107 4.6445C10.0581 4.70883 9.98011 4.74392 9.90214 4.74392V4.74197Z" fill="#603312"/>
<path d="M7.94093 4.06127C7.86685 4.06127 7.79277 4.03008 7.73818 3.97159C7.63486 3.85462 7.18843 3.41404 6.41058 2.66348C6.30336 2.56016 6.30141 2.3886 6.40473 2.28138C6.50805 2.17416 6.67961 2.17026 6.78683 2.27553C7.84931 3.30292 8.0696 3.53101 8.14173 3.61288C8.24115 3.72401 8.23141 3.89556 8.12028 3.99499C8.0696 4.03982 8.00527 4.06322 7.94093 4.06322V4.06127Z" fill="#603312"/>
<path d="M5.50015 2.6655C5.41438 2.6655 5.3286 2.62456 5.27596 2.54658C5.19214 2.42376 5.22333 2.25416 5.34615 2.17033C6.95448 1.07471 7.04025 1.06107 7.2235 1.29695C7.31513 1.41392 7.29564 1.58353 7.17867 1.67711C7.13383 1.7122 7.08119 1.73169 7.02856 1.73364C6.94083 1.77458 6.64061 1.94224 5.65027 2.61676C5.60348 2.64795 5.55084 2.66355 5.49821 2.66355L5.50015 2.6655Z" fill="#603312"/>
<path d="M2.85279 3.27369C2.78651 3.27369 2.71828 3.24835 2.66759 3.19961C2.55842 3.09629 2.55452 2.92668 2.65784 2.81751C2.89958 2.56408 3.63259 1.78818 4.32271 2.15664C4.45527 2.22682 4.50401 2.39057 4.43383 2.52314C4.36365 2.65376 4.19989 2.70444 4.06733 2.63426C3.7827 2.4822 3.30702 2.91694 3.04969 3.18987C2.99705 3.2464 2.92492 3.27369 2.85279 3.27369Z" fill="#603312"/>
<path d="M1.23469 6.42403C1.1801 6.42403 1.12357 6.40649 1.07678 6.3714C0.955911 6.28367 0.928618 6.11407 1.01635 5.9932L1.97939 4.66949C2.06712 4.54862 2.23673 4.52133 2.3576 4.60906C2.47847 4.69678 2.50576 4.86639 2.41803 4.98726L1.45498 6.31096C1.40234 6.3831 1.32047 6.42209 1.23664 6.42209L1.23469 6.42403Z" fill="#603312"/>
<path d="M3.64231 4.16891C3.55459 4.16891 3.47076 4.12797 3.41812 4.04999C3.3343 3.92717 3.36744 3.75757 3.4922 3.67569L4.6619 2.88809C4.78667 2.80427 4.95432 2.83741 5.0362 2.96217C5.12003 3.08499 5.08689 3.2546 4.96212 3.33648L3.79243 4.12407C3.74564 4.15526 3.693 4.17086 3.64231 4.17086V4.16891Z" fill="#603312"/>
<path d="M5.60549 6.78118C5.56065 6.78118 5.51581 6.76948 5.47292 6.74804C5.25263 6.62717 4.97385 6.25677 4.41435 4.36966C4.37146 4.22735 4.45334 4.07528 4.5976 4.03435C4.73991 3.99146 4.89002 4.07334 4.93291 4.2176C5.45928 5.99748 5.69711 6.24702 5.73805 6.28016C5.86867 6.35229 5.91351 6.5141 5.84138 6.64471C5.79264 6.73439 5.69906 6.78313 5.60354 6.78313L5.60549 6.78118Z" fill="#603312"/>
<path d="M7.45941 5.42232C7.41652 5.42232 7.37363 5.41257 7.33269 5.39113C6.09866 4.7322 5.584 4.26042 5.60739 3.81399C5.61519 3.66778 5.738 3.56445 5.88617 3.56445C6.03238 3.56835 6.14935 3.69702 6.1474 3.84323C6.1474 3.85493 6.16105 4.1532 7.58807 4.9135C7.72064 4.98368 7.76937 5.14744 7.69919 5.28001C7.65046 5.37163 7.55688 5.42232 7.46135 5.42232H7.45941Z" fill="#603312"/>
<path d="M6.25661 6.60352C6.13184 6.60352 6.01877 6.5158 5.99342 6.38908C5.96223 6.24287 6.05581 6.10055 6.20202 6.06936L7.71483 5.7477C7.86104 5.7165 8.0053 5.81008 8.03649 5.95629C8.06768 6.1025 7.97411 6.24482 7.8279 6.27796L6.31509 6.59962C6.2956 6.60352 6.27805 6.60547 6.25856 6.60547L6.25661 6.60352Z" fill="#603312"/>
<path d="M3.64233 8.17665C3.51562 8.17665 3.4006 8.08503 3.3772 7.95636C3.34991 7.81015 3.44738 7.66784 3.5936 7.64054C5.3072 7.32083 5.81017 7.01476 5.95833 6.86075C6.06165 6.75352 6.23321 6.74963 6.34043 6.85295C6.44765 6.95627 6.45155 7.12783 6.34823 7.23505C5.99732 7.60155 5.15319 7.89983 3.69107 8.17275C3.67353 8.17665 3.65793 8.17665 3.64038 8.17665H3.64233Z" fill="#603312"/>
<path d="M5.76723 8.94449C5.66001 8.94449 5.54889 8.93865 5.43387 8.925C5.28571 8.9094 5.17849 8.77489 5.19603 8.62673C5.21163 8.47857 5.34614 8.36939 5.49431 8.38889C6.27605 8.47467 6.77707 8.22708 7.07924 7.60909C7.14358 7.47458 7.30538 7.41804 7.4399 7.48433C7.57441 7.54866 7.629 7.71047 7.56466 7.84498C7.21181 8.56824 6.59382 8.94449 5.76723 8.94449Z" fill="#603312"/>
<path d="M8.80263 8.71249C8.7227 8.71249 8.64277 8.6774 8.58819 8.60722L7.72846 7.49796C7.63684 7.37904 7.65828 7.20943 7.7772 7.11976C7.89417 7.02813 8.06377 7.04958 8.1554 7.1685L9.01512 8.27776C9.10675 8.39473 9.08531 8.56628 8.96834 8.65791C8.9196 8.6969 8.86112 8.71444 8.80263 8.71444V8.71249Z" fill="#603312"/>
<path d="M2.95413 8.60563C2.91904 8.60563 2.88199 8.59783 2.8469 8.58419L1.43742 7.97595C1.30096 7.91746 1.23662 7.7576 1.29706 7.62114C1.35554 7.48467 1.5154 7.42034 1.65186 7.48077L3.06135 8.08902C3.19781 8.1475 3.26215 8.30736 3.20366 8.44382C3.15882 8.5452 3.0594 8.60758 2.95607 8.60758L2.95413 8.60563Z" fill="#603312"/>
<path d="M2.43949 7.46136C2.31668 7.46136 2.2075 7.37753 2.17631 7.25471C2.14122 7.11045 2.2309 6.96424 2.37516 6.92915C3.19979 6.7303 3.73396 6.44372 3.91916 6.09671C3.98934 5.9661 4.1531 5.91541 4.28566 5.98754C4.41628 6.05772 4.46696 6.22148 4.39483 6.35405C4.1258 6.85312 3.50781 7.21377 2.49993 7.45551C2.47848 7.46136 2.45704 7.46331 2.43755 7.46331L2.43949 7.46136Z" fill="#603312"/>
<path d="M2.87029 6.04432C2.68314 6.04432 2.48624 5.99558 2.2835 5.89421C2.14898 5.82792 2.09439 5.66612 2.16068 5.5316C2.22696 5.39904 2.38877 5.3425 2.52328 5.40878C2.85275 5.57059 3.08279 5.5277 3.29528 5.26647C3.38886 5.1495 3.55846 5.13196 3.67543 5.22553C3.79045 5.31911 3.80995 5.49066 3.71442 5.60568C3.48048 5.89421 3.19001 6.04237 2.87029 6.04237V6.04432Z" fill="#603312"/>
<path d="M1.75326 9.73823C1.6285 9.73823 1.51543 9.70704 1.41405 9.64661C1.21716 9.52964 1.09824 9.31714 1.0534 9.00132C0.638155 9.04421 0.222913 9.01692 0.068903 8.71475C-0.0890058 8.40673 0.102044 8.02268 0.702488 7.42808C0.80776 7.32281 0.979317 7.32476 1.08459 7.43003C1.18986 7.53531 1.18791 7.70686 1.08264 7.81213C0.698588 8.19228 0.597217 8.38333 0.569924 8.45741C0.640105 8.47691 0.827254 8.49835 1.26199 8.42622L1.57586 8.37359V8.69135C1.57586 9.00132 1.63824 9.14754 1.69283 9.17873C1.74352 9.20797 1.88973 9.19627 2.14121 9.05981C2.27183 8.98963 2.43754 9.03836 2.50772 9.16898C2.5779 9.2996 2.52916 9.46335 2.39854 9.53548C2.15486 9.66805 1.94236 9.73238 1.75716 9.73238L1.75326 9.73823Z" fill="#603312"/>
<path d="M9.66822 19.6826C9.13601 19.6826 8.57845 19.6631 7.99165 19.6261C6.47495 19.6046 5.15514 19.2342 4.08292 18.5226C3.33627 18.507 2.2465 17.0449 0.00848523 8.25662C-0.0285551 8.11235 0.059172 7.96419 0.203434 7.92715C0.347697 7.89011 0.495859 7.97784 0.532899 8.1221C2.96586 17.6805 3.94061 18.0119 4.10827 17.9787C4.17845 17.967 4.25058 17.9807 4.30906 18.0216C5.30525 18.7059 6.55098 19.0626 8.01115 19.0821C13.0798 19.4136 15.9592 18.3023 16.5831 15.7817C16.585 15.77 16.5889 15.7583 16.5928 15.7485C18.3922 11.1614 18.9731 8.91554 19.0862 7.82188C18.8464 8.07726 18.4448 8.17084 17.86 8.10651C17.819 8.45546 17.6865 8.71085 17.4584 8.86681C17.1328 9.091 16.6591 9.0871 16.0119 8.85121C15.7701 9.2879 15.4758 9.55108 15.1365 9.63686C14.8305 9.71484 14.501 9.64465 14.1559 9.43021C13.7427 9.80841 13.3625 9.96827 13.0038 9.91953C12.7465 9.88444 12.5184 9.74213 12.3234 9.49649C11.7405 10.0073 11.2278 10.2412 10.7658 10.2081C10.5143 10.1905 10.2882 10.095 10.0874 9.92148C9.89826 10.1125 9.67796 10.2295 9.42648 10.2704C8.97615 10.3445 8.45953 10.1691 7.85519 9.73823C7.65634 10.0521 7.4146 10.2334 7.13388 10.2763C6.77517 10.3309 6.39502 10.1632 5.97978 9.75967C5.70685 10.0112 5.41637 10.1398 5.11225 10.1398H5.1103C4.72431 10.1398 4.34611 9.94098 3.96011 9.53548C3.60725 9.81621 3.28948 9.91758 2.99316 9.8474C2.65784 9.76747 2.39661 9.4692 2.21726 8.95843C2.16852 8.81807 2.2426 8.66406 2.38296 8.61337C2.52333 8.56464 2.67734 8.63677 2.72803 8.77908C2.83915 9.0949 2.97756 9.2879 3.11988 9.32104C3.27583 9.35808 3.51757 9.22941 3.7983 8.96038C3.85288 8.90775 3.92501 8.88045 4.00104 8.8863C4.07707 8.8902 4.14531 8.92529 4.19404 8.98378C4.53131 9.39317 4.83932 9.59982 5.11225 9.60177C5.3267 9.60177 5.54894 9.4653 5.77118 9.19822C5.82187 9.13779 5.89595 9.1027 5.97393 9.10075C6.05581 9.10075 6.12794 9.13194 6.18058 9.19042C6.53149 9.58227 6.84145 9.77722 7.052 9.74603C7.2606 9.71289 7.42045 9.44386 7.51988 9.22551C7.55497 9.14948 7.62125 9.09295 7.70313 9.07345C7.78501 9.05396 7.87079 9.07345 7.93512 9.12414C8.51217 9.58227 8.99759 9.79477 9.3407 9.74018C9.5376 9.70899 9.70331 9.58617 9.84367 9.36783C9.89046 9.29375 9.97234 9.24891 10.0601 9.24501C10.1497 9.24306 10.2316 9.2801 10.2843 9.35028C10.4402 9.55303 10.6098 9.6583 10.8048 9.67195C11.1576 9.69729 11.6353 9.42826 12.185 8.8902C12.2454 8.83172 12.3293 8.80442 12.4131 8.81612C12.4969 8.82782 12.5691 8.8785 12.61 8.95258C12.7543 9.21772 12.9122 9.36198 13.0779 9.38537C13.2962 9.41461 13.5925 9.24501 13.9337 8.8941C14.0292 8.79663 14.1813 8.78493 14.2905 8.86681C14.5692 9.0793 14.809 9.16118 15.004 9.11244C15.2321 9.05591 15.4446 8.81417 15.6356 8.39698C15.696 8.26441 15.852 8.20398 15.9865 8.26052C16.7429 8.57828 17.0412 8.49835 17.1523 8.42037C17.3141 8.30925 17.3395 8.02268 17.3317 7.80239C17.3297 7.72051 17.3629 7.64253 17.4252 7.58794C17.4876 7.5353 17.5695 7.51191 17.6494 7.52556C18.1894 7.62303 18.5715 7.59184 18.7022 7.43783C18.8074 7.31306 18.7899 7.03819 18.6554 6.66778C18.6242 6.58395 18.6378 6.48843 18.6905 6.4163C18.7431 6.34417 18.8308 6.30518 18.9205 6.30518C19.1486 6.31492 19.3338 6.4202 19.4586 6.61125C19.8056 7.14346 19.9401 8.68745 17.1036 15.924C16.4758 18.4174 13.9766 19.6748 9.66627 19.6748L9.66822 19.6826Z" fill="#603312"/>
<path d="M3.93087 18.0204C3.87823 18.0204 3.82365 18.0087 3.77296 17.9834C3.52537 17.8625 3.06529 17.6403 0.220985 8.92022C0.174197 8.7779 0.252177 8.62584 0.394489 8.57906C0.536802 8.53227 0.688863 8.61025 0.73565 8.75256C0.780489 8.88902 0.823377 9.02354 0.866266 9.15416C0.788286 8.69797 0.799985 8.46988 0.837025 8.33537C0.876015 8.19111 1.02418 8.10728 1.16844 8.14627C1.3127 8.18526 1.39653 8.33537 1.35754 8.47768C1.26786 8.80715 1.5174 10.4369 4.2038 17.652C4.22914 17.7202 4.22524 17.7943 4.196 17.8586C4.16676 17.9249 4.11022 17.9737 4.04394 17.999C4.0069 18.0126 3.96791 18.0185 3.93087 18.0185V18.0204Z" fill="#603312"/>
<path d="M4.43381 18.3027C4.32659 18.3027 4.22327 18.2364 4.18233 18.1311C3.17834 15.5461 2.35176 12.5692 1.72792 9.28043C1.70063 9.13422 1.79615 8.99191 1.94236 8.96461C2.09052 8.93732 2.23089 9.03285 2.25818 9.17906C2.87617 12.4347 3.69301 15.3804 4.6853 17.9342C4.73988 18.0726 4.6697 18.2305 4.53129 18.2832C4.49815 18.2949 4.465 18.3007 4.43381 18.3007V18.3027Z" fill="#603312"/>
<path d="M4.88021 18.6963C4.74959 18.6963 4.63652 18.6028 4.61313 18.4702L3.16856 9.84565C3.14321 9.69944 3.24264 9.55908 3.3908 9.53374C3.53701 9.51034 3.67737 9.60782 3.70272 9.75598L5.14729 18.3805C5.17263 18.5267 5.07321 18.6671 4.92505 18.6924C4.90945 18.6944 4.89581 18.6963 4.88021 18.6963Z" fill="#603312"/>
<path d="M5.84333 18.8038C5.70882 18.8038 5.59185 18.7024 5.57625 18.5659C5.29163 16.1564 5.14152 13.3413 5.12787 10.1987C5.12787 10.0486 5.24679 9.92773 5.3969 9.92773C5.54506 9.92773 5.66593 10.0486 5.66788 10.1968C5.68153 13.3199 5.83164 16.1154 6.11236 18.5035C6.12991 18.6517 6.02464 18.7862 5.87648 18.8038C5.86673 18.8038 5.85503 18.8038 5.84528 18.8038H5.84333Z" fill="#603312"/>
<path d="M7.28782 19.053C7.13771 19.053 7.01685 18.9322 7.01685 18.7821V10.0503C7.01685 9.90017 7.13771 9.7793 7.28782 9.7793C7.43794 9.7793 7.5588 9.90017 7.5588 10.0503V18.7821C7.5588 18.9322 7.43794 19.053 7.28782 19.053Z" fill="#603312"/>
<path d="M9.66825 18.9867C9.63121 18.9867 9.59417 18.9809 9.56298 18.9672C9.31344 18.86 9.13409 18.782 9.14969 10.3017C9.14969 10.1536 9.27055 10.0327 9.42067 10.0327C9.57078 10.0327 9.6897 10.1536 9.6897 10.3037C9.678 16.5245 9.78912 18.1406 9.86905 18.5072C9.87685 18.513 9.88269 18.5189 9.88854 18.5267C9.99187 18.6358 9.98602 18.8054 9.8788 18.9088C9.82616 18.9594 9.74428 18.9887 9.6663 18.9887L9.66825 18.9867Z" fill="#603312"/>
<path d="M11.1401 18.659C10.9978 18.659 10.8789 18.5479 10.8711 18.4036L10.4578 10.3522C10.45 10.2041 10.565 10.0754 10.7132 10.0676C10.8633 10.0618 10.99 10.1748 10.9978 10.323L11.4111 18.3744C11.4189 18.5225 11.3038 18.6512 11.1557 18.659C11.1518 18.659 11.1459 18.659 11.142 18.659H11.1401Z" fill="#603312"/>
<path d="M12.2747 18.6963C12.1246 18.6963 12.0057 18.5735 12.0057 18.4253L12.0408 9.26464C12.0408 9.11647 12.1616 8.99561 12.3117 8.99561C12.4619 8.99561 12.5808 9.11842 12.5808 9.26658L12.5457 18.4272C12.5457 18.5754 12.4248 18.6963 12.2747 18.6963Z" fill="#603312"/>
<path d="M13.6159 18.4102C13.6159 18.4102 13.6101 18.4102 13.6062 18.4102C13.458 18.4044 13.341 18.2796 13.3449 18.1315L13.6549 9.43478C13.6608 9.28662 13.7836 9.1677 13.9337 9.17355C14.0818 9.1794 14.1988 9.30416 14.1949 9.45232L13.885 18.149C13.8791 18.2952 13.7602 18.4102 13.6159 18.4102Z" fill="#603312"/>
<path d="M14.8207 17.9434C14.811 17.9434 14.8012 17.9434 14.7915 17.9434C14.6433 17.9278 14.5361 17.7953 14.5517 17.6451C14.5517 17.6451 14.8597 14.7696 15.4796 9.02059C15.4952 8.87243 15.6297 8.76521 15.7779 8.7808C15.9261 8.7964 16.0333 8.93092 16.0177 9.07908C15.3978 14.8281 15.0897 17.7036 15.0897 17.7036C15.0741 17.842 14.9572 17.9454 14.8207 17.9454V17.9434Z" fill="#603312"/>
<path d="M15.7837 17.6571C15.7681 17.6571 15.7545 17.6571 15.7389 17.6532C15.5907 17.6279 15.4933 17.4895 15.5166 17.3413L16.9261 8.89611C16.9515 8.74795 17.0899 8.65048 17.238 8.67387C17.3862 8.69922 17.4837 8.83763 17.4603 8.98579L16.0508 17.431C16.0294 17.5636 15.9143 17.6571 15.7837 17.6571Z" fill="#603312"/>
<path d="M17.8528 8.1735L16.3067 16.083L16.8367 16.1866L18.3827 8.27709L17.8528 8.1735Z" fill="#603312"/>
<path d="M17.4681 14.008C17.4389 14.008 17.4077 14.0021 17.3784 13.9924C17.2381 13.9436 17.164 13.7896 17.2127 13.6473C18.4877 9.99982 18.5345 8.61958 18.3473 8.10296C18.2967 7.9626 18.3688 7.80859 18.5091 7.7579C18.6495 7.70722 18.8035 7.77935 18.8542 7.91971C19.172 8.80283 18.8016 10.7328 17.7196 13.8247C17.6806 13.9358 17.5753 14.006 17.4642 14.006L17.4681 14.008Z" fill="#603312"/>
<path d="M9.79494 19.0592C8.02871 19.0592 6.01098 18.7804 3.74957 18.2228L3.87824 17.6984C10.0269 19.2151 14.2749 18.6322 16.5031 15.9634L16.9184 16.3104C15.388 18.1429 13.0038 19.0611 9.79494 19.0611V19.0592Z" fill="#603312"/>
<path d="M12.4462 6.31701C12.3936 6.31701 12.3429 6.30142 12.2961 6.27217L10.8515 5.30523C10.7267 5.2214 10.6936 5.05374 10.7774 4.93092C10.8613 4.80616 11.027 4.77302 11.1517 4.85684L12.5963 5.82379C12.7211 5.90762 12.7542 6.07528 12.6704 6.19809C12.6178 6.27607 12.532 6.31701 12.4462 6.31701Z" fill="#603312"/>
</svg>
