<svg width="38" height="38" viewBox="0 0 38 38" fill="none" xmlns="http://www.w3.org/2000/svg">
<rect width="38" height="38" rx="19" fill="#603312"/>
<path d="M19.3663 16.2444C17.646 16.2444 16.2421 17.6484 16.2421 19.3687C16.2421 21.089 17.646 22.4929 19.3663 22.4929C21.0866 22.4929 22.4905 21.089 22.4905 19.3687C22.4905 17.6484 21.0866 16.2444 19.3663 16.2444ZM28.7366 19.3687C28.7366 18.0749 28.7484 16.7929 28.6757 15.5015C28.603 14.0015 28.2609 12.6702 27.164 11.5734C26.0648 10.4741 24.7359 10.1343 23.2359 10.0616C21.9421 9.98898 20.6601 10.0007 19.3687 10.0007C18.0749 10.0007 16.7929 9.98898 15.5015 10.0616C14.0015 10.1343 12.6702 10.4765 11.5734 11.5734C10.4741 12.6726 10.1343 14.0015 10.0616 15.5015C9.98898 16.7952 10.0007 18.0773 10.0007 19.3687C10.0007 20.6601 9.98898 21.9444 10.0616 23.2359C10.1343 24.7359 10.4765 26.0671 11.5734 27.164C12.6726 28.2632 14.0015 28.603 15.5015 28.6757C16.7952 28.7484 18.0773 28.7366 19.3687 28.7366C20.6624 28.7366 21.9444 28.7484 23.2359 28.6757C24.7359 28.603 26.0671 28.2609 27.164 27.164C28.2632 26.0648 28.603 24.7359 28.6757 23.2359C28.7507 21.9444 28.7366 20.6624 28.7366 19.3687V19.3687ZM19.3663 24.1757C16.7062 24.1757 14.5593 22.0288 14.5593 19.3687C14.5593 16.7085 16.7062 14.5616 19.3663 14.5616C22.0265 14.5616 24.1734 16.7085 24.1734 19.3687C24.1734 22.0288 22.0265 24.1757 19.3663 24.1757ZM24.3702 15.4874C23.7491 15.4874 23.2476 14.9859 23.2476 14.3648C23.2476 13.7437 23.7491 13.2421 24.3702 13.2421C24.9913 13.2421 25.4929 13.7437 25.4929 14.3648C25.4931 14.5122 25.4642 14.6583 25.4078 14.7946C25.3515 14.9309 25.2688 15.0547 25.1645 15.159C25.0602 15.2633 24.9364 15.346 24.8001 15.4023C24.6638 15.4587 24.5177 15.4876 24.3702 15.4874V15.4874Z" fill="white"/>
</svg>
