<svg width="38" height="38" viewBox="0 0 38 38" fill="none" xmlns="http://www.w3.org/2000/svg">
<rect width="38" height="38" rx="19" fill="#603312"/>
<g clip-path="url(#clip0_46_165)">
<path fill-rule="evenodd" clip-rule="evenodd" d="M9.83337 11.3652C9.83337 10.9589 9.99475 10.5694 10.282 10.2821C10.5692 9.99487 10.9588 9.8335 11.365 9.8335H26.6334C26.8347 9.83317 27.0341 9.87255 27.2202 9.94939C27.4062 10.0262 27.5753 10.139 27.7177 10.2813C27.8602 10.4236 27.9731 10.5925 28.0502 10.7785C28.1272 10.9645 28.1668 11.1639 28.1667 11.3652V26.6335C28.1669 26.8348 28.1274 27.0343 28.0505 27.2203C27.9736 27.4064 27.8607 27.5755 27.7184 27.7179C27.576 27.8603 27.407 27.9733 27.221 28.0503C27.035 28.1273 26.8356 28.1669 26.6342 28.1668H11.365C11.1638 28.1668 10.9646 28.1272 10.7787 28.0502C10.5928 27.9731 10.4239 27.8602 10.2817 27.7179C10.1395 27.5756 10.0267 27.4067 9.94973 27.2207C9.8728 27.0348 9.83326 26.8355 9.83337 26.6343V11.3652ZM17.09 16.8235H19.5725V18.0702C19.9309 17.3535 20.8475 16.7085 22.225 16.7085C24.8659 16.7085 25.4917 18.136 25.4917 20.7552V25.6068H22.8192V21.3518C22.8192 19.8602 22.4609 19.0185 21.5509 19.0185C20.2884 19.0185 19.7634 19.926 19.7634 21.3518V25.6068H17.09V16.8235ZM12.5067 25.4927H15.18V16.7085H12.5067V25.4927ZM15.5625 13.8435C15.5676 14.0724 15.5269 14.3 15.4427 14.5129C15.3586 14.7259 15.2328 14.9199 15.0727 15.0835C14.9126 15.2472 14.7215 15.3772 14.5104 15.466C14.2994 15.5548 14.0727 15.6005 13.8438 15.6005C13.6148 15.6005 13.3882 15.5548 13.1772 15.466C12.9661 15.3772 12.7749 15.2472 12.6148 15.0835C12.4547 14.9199 12.329 14.7259 12.2448 14.5129C12.1607 14.3 12.12 14.0724 12.125 13.8435C12.1349 13.3942 12.3204 12.9667 12.6416 12.6524C12.9629 12.3381 13.3944 12.1622 13.8438 12.1622C14.2932 12.1622 14.7247 12.3381 15.046 12.6524C15.3672 12.9667 15.5526 13.3942 15.5625 13.8435Z" fill="white"/>
</g>
<defs>
<clipPath id="clip0_46_165">
<rect width="20" height="20" fill="white" transform="translate(9 9)"/>
</clipPath>
</defs>
</svg>
