<?xml version="1.0" encoding="utf-8"?>
<!-- Generator: Adobe Illustrator 25.4.1, SVG Export Plug-In . SVG Version: 6.00 Build 0)  -->
<svg version="1.1" id="Camada_1" xmlns="http://www.w3.org/2000/svg" xmlns:xlink="http://www.w3.org/1999/xlink" x="0px" y="0px"
	 width="20px" height="20px" viewBox="0 0 20 20" enable-background="new 0 0 20 20" xml:space="preserve">
<g id="Elipse_1329">
	<ellipse fill="#F9F4E8" cx="9.95" cy="10.033" rx="9.13" ry="9.033"/>
</g>
<g id="Grupo_16342" transform="translate(1.5 1.342)">
	<g id="Grupo_13429" transform="translate(-0.001 0)">
		<g id="Caminho_20298">
			<path fill="#482119" d="M4.962,13.022c-0.462,0-0.898-0.178-1.228-0.501c-0.335-0.328-0.523-0.767-0.528-1.237v-0.038
				l0.479,0.007v0.025c0.004,0.342,0.14,0.662,0.384,0.901c0.244,0.239,0.566,0.365,0.907,0.365c0.341-0.004,0.661-0.14,0.899-0.384
				c0.239-0.244,0.368-0.566,0.365-0.907l0.479-0.005c0.005,0.469-0.173,0.912-0.501,1.247c-0.328,0.335-0.767,0.523-1.236,0.528
				C4.975,13.021,4.969,13.022,4.962,13.022z"/>
		</g>
		<g id="Linha_2825">
			
				<rect x="9.881" y="4.199" transform="matrix(0.4472 -0.8944 0.8944 0.4472 1.2319 11.7482)" fill="#482119" width="0.479" height="1.357"/>
		</g>
		<g id="Caminho_20299">
			<path fill="#482119" d="M8.906,10.274c-0.468,0-0.816-0.153-1.033-0.455C7.47,9.262,7.694,8.388,7.756,8.182
				c-0.009-0.16-0.086-0.638-0.669-0.638H4.787c0.407,0.42,0.415,0.965,0.415,0.974H4.723h0.239L4.723,8.52
				c-0.001-0.1-0.049-0.976-1.278-0.976V7.065h3.641c0.909,0,1.149,0.752,1.149,1.149v0.039L8.223,8.29
				c-0.075,0.229-0.216,0.9,0.038,1.25c0.124,0.172,0.335,0.255,0.645,0.255c0.484,0,0.868-0.157,1.142-0.468
				c0.439-0.497,0.592-1.397,0.441-2.601l0.475-0.059c0.17,1.363-0.017,2.365-0.557,2.977C10.043,10.057,9.524,10.274,8.906,10.274z
				"/>
		</g>
		<g id="Caminho_20300">
			<path fill="#482119" d="M13.09,9.125h-0.479c0-0.014-0.019-1.457-1.16-2.885l0.374-0.299C13.075,7.506,13.09,9.06,13.09,9.125z"
				/>
		</g>
		<g id="Caminho_20301">
			<path fill="#482119" d="M12.245,6.331h-0.906c-0.467,0-0.846-0.38-0.846-0.846c0-0.467,0.38-0.846,0.846-0.846h0.906v0.479
				h-0.906c-0.203,0-0.367,0.165-0.367,0.368c0,0.203,0.165,0.367,0.367,0.367h0.906V6.331z"/>
		</g>
		<g id="Caminho_20302">
			<path fill="#482119" d="M11.096,11.488h-8.8v-0.239c0-1.027,0.557-2.97,2.667-2.97c1.105,0,1.918,0.686,2.351,1.984l-0.454,0.151
				C6.492,9.315,5.854,8.758,4.962,8.758c-1.777,0-2.111,1.625-2.174,2.252h8.176c0.871-0.512,1.781-0.973,2.71-1.373
				c-0.151-0.129-0.412-0.272-0.825-0.272c-0.586,0-1.025,0.516-1.029,0.521l-0.367-0.307c0.024-0.028,0.589-0.692,1.396-0.692
				c1.045,0,1.413,0.708,1.428,0.739l0.115,0.23l-0.238,0.098c-1.032,0.428-2.043,0.933-3.004,1.502L11.096,11.488z"/>
		</g>
		<g id="Caminho_20303">
			<path fill="#482119" d="M12.853,13.004c-0.625,0-1.231-0.334-1.548-0.921c-0.021-0.039-0.041-0.079-0.059-0.12l0.437-0.195
				c0.013,0.029,0.027,0.059,0.043,0.087c0.162,0.3,0.432,0.519,0.759,0.616c0.327,0.098,0.673,0.062,0.973-0.101
				c0.62-0.335,0.851-1.112,0.516-1.732l0.421-0.228c0.461,0.852,0.142,1.92-0.71,2.381C13.421,12.936,13.135,13.004,12.853,13.004z
				"/>
		</g>
	</g>
</g>
</svg>
