<?xml version="1.0" encoding="utf-8"?>
<!-- Generator: Adobe Illustrator 25.4.1, SVG Export Plug-In . SVG Version: 6.00 Build 0)  -->
<svg version="1.1" id="Camada_1" xmlns="http://www.w3.org/2000/svg" xmlns:xlink="http://www.w3.org/1999/xlink" x="0px" y="0px"
	 width="20px" height="20px" viewBox="0 0 20 20" enable-background="new 0 0 20 20" xml:space="preserve">
<g id="Elipse_1329">
	<ellipse fill="#F9F4E8" cx="9.977" cy="10.029" rx="9.13" ry="9.033"/>
</g>
<g id="Grupo_16296" transform="translate(39.988 28.013)">
	<g id="Grupo_16291" transform="translate(12.134 10.566)">
		<g id="Grupo_16290" transform="translate(0 0)">
			<g id="Caminho_49998">
				<path fill="#482119" d="M-42.697-27.585H-42.7c-0.474-0.007-0.86-0.399-0.86-0.873v-2.602c0.001-0.475,0.388-0.861,0.862-0.863
					h5.048c0.475,0.001,0.861,0.388,0.863,0.862v2.602c0,0.474-0.386,0.866-0.86,0.873H-42.697z M-42.696-27.964h5.046
					c0.265-0.004,0.484-0.226,0.484-0.494v-2.601c-0.001-0.266-0.218-0.483-0.484-0.484h-5.047
					c-0.266,0.001-0.483,0.218-0.484,0.484v2.601C-43.181-28.19-42.963-27.969-42.696-27.964z"/>
			</g>
			<g id="Linha_3030">
				<rect x="-42.555" y="-28.963" fill="#482119" width="3.226" height="0.379"/>
			</g>
			<g id="Linha_3031">
				<rect x="-42.555" y="-29.823" fill="#482119" width="2.131" height="0.379"/>
			</g>
		</g>
		<g id="Caminho_49999">
			<path fill="#482119" d="M-38.611-29.427c-0.462,0-0.839-0.376-0.839-0.838c0-0.462,0.376-0.839,0.838-0.839
				c0.463,0,0.839,0.376,0.839,0.838c0,0.224-0.087,0.435-0.245,0.593C-38.176-29.514-38.386-29.427-38.611-29.427
				C-38.61-29.427-38.61-29.427-38.611-29.427z M-38.611-30.725c-0.123,0-0.238,0.048-0.325,0.135
				c-0.087,0.087-0.134,0.202-0.134,0.325c0,0.253,0.206,0.459,0.46,0.459c0,0,0,0,0,0c0.123,0,0.238-0.048,0.325-0.135
				c0.087-0.087,0.134-0.202,0.134-0.325C-38.151-30.519-38.357-30.725-38.611-30.725z"/>
		</g>
	</g>
	<g id="Grupo_16295" transform="translate(-0.001 0)">
		<g id="Grupo_16294">
			<g id="Grupo_16293">
				<g id="Grupo_16292">
					<g id="Caminho_50000">
						<path fill="#482119" d="M-32.643-13.01c-0.352-0.01-0.623-0.29-0.623-0.637v-8.689c0.001-0.343,0.28-0.622,0.622-0.622h4.426
							c0.343,0.001,0.622,0.28,0.623,0.622v0.438h-0.379v-0.437c0-0.134-0.11-0.243-0.244-0.243h-4.425
							c-0.134,0-0.243,0.11-0.244,0.244v8.689c0,0.14,0.109,0.253,0.249,0.258l4.419,0c0.134-0.004,0.244-0.117,0.244-0.257v-2.832
							h0.379v2.831c0.001,0.347-0.27,0.626-0.617,0.636L-32.643-13.01z"/>
					</g>
					<g id="Linha_3032">
						<rect x="-32.433" y="-15.277" fill="#482119" width="4.004" height="0.379"/>
					</g>
					<g id="Linha_3033">
						<path fill="#482119" d="M-30.07-13.981h-0.72c-0.105,0-0.19-0.085-0.19-0.19s0.085-0.19,0.19-0.19h0.72
							c0.105,0,0.19,0.085,0.19,0.19S-29.966-13.981-30.07-13.981z"/>
					</g>
				</g>
			</g>
		</g>
	</g>
</g>
</svg>
